<svg width="276" height="45" viewBox="0 0 276 45" fill="none" xmlns="http://www.w3.org/2000/svg">
<rect width="276" height="45" rx="7" fill="white"/>
<path d="M8.28 31C8.104 31 7.96 30.944 7.848 30.832C7.736 30.72 7.68 30.576 7.68 30.4V14.8C7.68 14.624 7.736 14.48 7.848 14.368C7.96 14.256 8.104 14.2 8.28 14.2H10.824C11.096 14.2 11.288 14.264 11.4 14.392C11.528 14.504 11.608 14.592 11.64 14.656L17.496 23.896V14.8C17.496 14.624 17.552 14.48 17.664 14.368C17.776 14.256 17.92 14.2 18.096 14.2H20.976C21.152 14.2 21.296 14.256 21.408 14.368C21.52 14.48 21.576 14.624 21.576 14.8V30.4C21.576 30.56 21.52 30.704 21.408 30.832C21.296 30.944 21.152 31 20.976 31H18.408C18.152 31 17.96 30.936 17.832 30.808C17.72 30.68 17.648 30.592 17.616 30.544L11.76 21.664V30.4C11.76 30.576 11.704 30.72 11.592 30.832C11.48 30.944 11.336 31 11.16 31H8.28ZM23.97 31C23.842 31 23.722 30.952 23.61 30.856C23.514 30.744 23.466 30.624 23.466 30.496C23.466 30.416 23.474 30.344 23.49 30.28L29.13 14.872C29.178 14.696 29.274 14.544 29.418 14.416C29.578 14.272 29.794 14.2 30.066 14.2H33.618C33.89 14.2 34.098 14.272 34.242 14.416C34.402 14.544 34.506 14.696 34.554 14.872L40.17 30.28C40.202 30.344 40.218 30.416 40.218 30.496C40.218 30.624 40.162 30.744 40.05 30.856C39.954 30.952 39.834 31 39.69 31H36.738C36.498 31 36.314 30.944 36.186 30.832C36.074 30.704 36.002 30.592 35.97 30.496L35.034 28.048H28.626L27.714 30.496C27.682 30.592 27.61 30.704 27.498 30.832C27.386 30.944 27.194 31 26.922 31H23.97ZM29.61 24.592H34.074L31.818 18.256L29.61 24.592ZM42.7097 31C42.5497 31 42.4057 30.944 42.2777 30.832C42.1657 30.72 42.1097 30.576 42.1097 30.4V14.8C42.1097 14.624 42.1657 14.48 42.2777 14.368C42.4057 14.256 42.5497 14.2 42.7097 14.2H45.3017C45.5577 14.2 45.7497 14.272 45.8777 14.416C46.0217 14.544 46.1097 14.648 46.1417 14.728L50.3657 22.312L54.5897 14.728C54.6377 14.648 54.7177 14.544 54.8297 14.416C54.9577 14.272 55.1577 14.2 55.4297 14.2H57.9977C58.1737 14.2 58.3177 14.256 58.4297 14.368C58.5577 14.48 58.6217 14.624 58.6217 14.8V30.4C58.6217 30.576 58.5577 30.72 58.4297 30.832C58.3177 30.944 58.1737 31 57.9977 31H55.1417C54.9657 31 54.8137 30.944 54.6857 30.832C54.5737 30.72 54.5177 30.576 54.5177 30.4V21.4L51.8057 26.416C51.7417 26.56 51.6457 26.688 51.5177 26.8C51.3897 26.912 51.2137 26.968 50.9897 26.968H49.7417C49.5177 26.968 49.3417 26.912 49.2137 26.8C49.0857 26.688 48.9817 26.56 48.9017 26.416L46.1897 21.4V30.4C46.1897 30.576 46.1337 30.72 46.0217 30.832C45.9097 30.944 45.7657 31 45.5897 31H42.7097ZM61.0013 31C60.8733 31 60.7533 30.952 60.6413 30.856C60.5453 30.744 60.4973 30.624 60.4973 30.496C60.4973 30.416 60.5053 30.344 60.5213 30.28L66.1613 14.872C66.2093 14.696 66.3053 14.544 66.4492 14.416C66.6093 14.272 66.8253 14.2 67.0973 14.2H70.6493C70.9213 14.2 71.1293 14.272 71.2733 14.416C71.4333 14.544 71.5373 14.696 71.5853 14.872L77.2013 30.28C77.2333 30.344 77.2493 30.416 77.2493 30.496C77.2493 30.624 77.1933 30.744 77.0813 30.856C76.9853 30.952 76.8653 31 76.7213 31H73.7693C73.5293 31 73.3453 30.944 73.2173 30.832C73.1053 30.704 73.0333 30.592 73.0013 30.496L72.0653 28.048H65.6573L64.7453 30.496C64.7133 30.592 64.6413 30.704 64.5293 30.832C64.4173 30.944 64.2253 31 63.9533 31H61.0013ZM66.6413 24.592H71.1053L68.8493 18.256L66.6413 24.592ZM79.7409 31C79.5649 31 79.4209 30.944 79.3089 30.832C79.1969 30.72 79.1409 30.576 79.1409 30.4V14.8C79.1409 14.624 79.1969 14.48 79.3089 14.368C79.4209 14.256 79.5649 14.2 79.7409 14.2H82.2849C82.5569 14.2 82.7489 14.264 82.8609 14.392C82.9889 14.504 83.0689 14.592 83.1009 14.656L88.9569 23.896V14.8C88.9569 14.624 89.0129 14.48 89.1249 14.368C89.2369 14.256 89.3809 14.2 89.5569 14.2H92.4369C92.6129 14.2 92.7569 14.256 92.8689 14.368C92.9809 14.48 93.0369 14.624 93.0369 14.8V30.4C93.0369 30.56 92.9809 30.704 92.8689 30.832C92.7569 30.944 92.6129 31 92.4369 31H89.8689C89.6129 31 89.4209 30.936 89.2929 30.808C89.1809 30.68 89.1089 30.592 89.0769 30.544L83.2209 21.664V30.4C83.2209 30.576 83.1649 30.72 83.0529 30.832C82.9409 30.944 82.7969 31 82.6209 31H79.7409ZM103.327 31.24C101.807 31.24 100.495 30.992 99.3909 30.496C98.3029 29.984 97.4549 29.248 96.8469 28.288C96.2549 27.312 95.9269 26.128 95.8629 24.736C95.8469 24.048 95.8389 23.32 95.8389 22.552C95.8389 21.768 95.8469 21.024 95.8629 20.32C95.9269 18.96 96.2629 17.808 96.8709 16.864C97.4789 15.92 98.3349 15.2 99.4389 14.704C100.543 14.208 101.839 13.96 103.327 13.96C104.527 13.96 105.591 14.112 106.519 14.416C107.447 14.704 108.223 15.096 108.847 15.592C109.487 16.088 109.967 16.632 110.287 17.224C110.623 17.816 110.799 18.4 110.815 18.976C110.831 19.12 110.783 19.24 110.671 19.336C110.575 19.432 110.455 19.48 110.311 19.48H106.807C106.631 19.48 106.495 19.456 106.399 19.408C106.319 19.344 106.247 19.256 106.183 19.144C106.071 18.904 105.903 18.656 105.679 18.4C105.471 18.128 105.175 17.896 104.791 17.704C104.423 17.512 103.935 17.416 103.327 17.416C102.415 17.416 101.695 17.656 101.167 18.136C100.655 18.616 100.375 19.384 100.327 20.44C100.279 21.816 100.279 23.208 100.327 24.616C100.375 25.736 100.671 26.544 101.215 27.04C101.759 27.536 102.479 27.784 103.375 27.784C103.983 27.784 104.519 27.68 104.983 27.472C105.463 27.264 105.839 26.944 106.111 26.512C106.383 26.064 106.519 25.496 106.519 24.808V24.352H104.263C104.087 24.352 103.935 24.296 103.807 24.184C103.695 24.056 103.639 23.904 103.639 23.728V21.952C103.639 21.776 103.695 21.632 103.807 21.52C103.935 21.392 104.087 21.328 104.263 21.328H110.311C110.487 21.328 110.631 21.392 110.743 21.52C110.855 21.632 110.911 21.776 110.911 21.952V24.688C110.911 26.064 110.599 27.24 109.975 28.216C109.351 29.192 108.463 29.944 107.311 30.472C106.175 30.984 104.847 31.24 103.327 31.24ZM112.329 31C112.201 31 112.081 30.952 111.969 30.856C111.873 30.744 111.825 30.624 111.825 30.496C111.825 30.416 111.833 30.344 111.849 30.28L117.489 14.872C117.537 14.696 117.633 14.544 117.777 14.416C117.937 14.272 118.153 14.2 118.425 14.2H121.977C122.249 14.2 122.457 14.272 122.601 14.416C122.761 14.544 122.865 14.696 122.913 14.872L128.529 30.28C128.561 30.344 128.577 30.416 128.577 30.496C128.577 30.624 128.521 30.744 128.409 30.856C128.313 30.952 128.193 31 128.049 31H125.097C124.857 31 124.673 30.944 124.545 30.832C124.433 30.704 124.361 30.592 124.329 30.496L123.393 28.048H116.985L116.073 30.496C116.041 30.592 115.969 30.704 115.857 30.832C115.745 30.944 115.553 31 115.281 31H112.329ZM117.969 24.592H122.433L120.177 18.256L117.969 24.592ZM131.069 31C130.893 31 130.749 30.944 130.637 30.832C130.525 30.72 130.469 30.576 130.469 30.4V14.8C130.469 14.624 130.525 14.48 130.637 14.368C130.749 14.256 130.893 14.2 131.069 14.2H133.613C133.885 14.2 134.077 14.264 134.189 14.392C134.317 14.504 134.397 14.592 134.429 14.656L140.285 23.896V14.8C140.285 14.624 140.341 14.48 140.453 14.368C140.565 14.256 140.709 14.2 140.885 14.2H143.765C143.941 14.2 144.085 14.256 144.197 14.368C144.309 14.48 144.365 14.624 144.365 14.8V30.4C144.365 30.56 144.309 30.704 144.197 30.832C144.085 30.944 143.941 31 143.765 31H141.197C140.941 31 140.749 30.936 140.621 30.808C140.509 30.68 140.437 30.592 140.405 30.544L134.549 21.664V30.4C134.549 30.576 134.493 30.72 134.381 30.832C134.269 30.944 134.125 31 133.949 31H131.069ZM148.319 31C148.143 31 147.999 30.944 147.887 30.832C147.775 30.72 147.719 30.576 147.719 30.4V14.8C147.719 14.624 147.775 14.48 147.887 14.368C147.999 14.256 148.143 14.2 148.319 14.2H151.487C151.647 14.2 151.783 14.256 151.895 14.368C152.023 14.48 152.087 14.624 152.087 14.8V27.376H159.335C159.511 27.376 159.655 27.44 159.767 27.568C159.895 27.68 159.959 27.824 159.959 28V30.4C159.959 30.576 159.895 30.72 159.767 30.832C159.655 30.944 159.511 31 159.335 31H148.319ZM162.639 31C162.463 31 162.319 30.944 162.207 30.832C162.095 30.72 162.039 30.576 162.039 30.4V14.8C162.039 14.624 162.095 14.48 162.207 14.368C162.319 14.256 162.463 14.2 162.639 14.2H165.855C166.031 14.2 166.175 14.256 166.287 14.368C166.399 14.48 166.455 14.624 166.455 14.8V30.4C166.455 30.576 166.399 30.72 166.287 30.832C166.175 30.944 166.031 31 165.855 31H162.639ZM170.421 31C170.245 31 170.101 30.944 169.989 30.832C169.877 30.72 169.821 30.576 169.821 30.4V14.8C169.821 14.624 169.877 14.48 169.989 14.368C170.101 14.256 170.245 14.2 170.421 14.2H173.445C173.621 14.2 173.765 14.256 173.877 14.368C173.989 14.48 174.045 14.624 174.045 14.8V20.128L178.485 14.656C178.549 14.56 178.653 14.464 178.797 14.368C178.957 14.256 179.165 14.2 179.421 14.2H182.877C183.021 14.2 183.141 14.256 183.237 14.368C183.333 14.464 183.381 14.576 183.381 14.704C183.381 14.816 183.349 14.912 183.285 14.992L177.549 22.24L183.741 30.208C183.805 30.272 183.837 30.368 183.837 30.496C183.837 30.624 183.781 30.744 183.669 30.856C183.573 30.952 183.461 31 183.333 31H179.757C179.469 31 179.245 30.936 179.085 30.808C178.941 30.68 178.845 30.584 178.797 30.52L174.045 24.592V30.4C174.045 30.576 173.989 30.72 173.877 30.832C173.765 30.944 173.621 31 173.445 31H170.421ZM186.311 31C186.135 31 185.991 30.944 185.879 30.832C185.767 30.72 185.711 30.576 185.711 30.4V14.8C185.711 14.624 185.767 14.48 185.879 14.368C185.991 14.256 186.135 14.2 186.311 14.2H189.479C189.639 14.2 189.775 14.256 189.887 14.368C190.015 14.48 190.079 14.624 190.079 14.8V27.376H197.327C197.503 27.376 197.647 27.44 197.759 27.568C197.887 27.68 197.951 27.824 197.951 28V30.4C197.951 30.576 197.887 30.72 197.759 30.832C197.647 30.944 197.503 31 197.327 31H186.311ZM199.072 31C198.944 31 198.824 30.952 198.712 30.856C198.616 30.744 198.568 30.624 198.568 30.496C198.568 30.416 198.576 30.344 198.592 30.28L204.232 14.872C204.28 14.696 204.376 14.544 204.52 14.416C204.68 14.272 204.896 14.2 205.168 14.2H208.72C208.992 14.2 209.2 14.272 209.344 14.416C209.504 14.544 209.608 14.696 209.656 14.872L215.272 30.28C215.304 30.344 215.32 30.416 215.32 30.496C215.32 30.624 215.264 30.744 215.152 30.856C215.056 30.952 214.936 31 214.792 31H211.84C211.6 31 211.416 30.944 211.288 30.832C211.176 30.704 211.104 30.592 211.072 30.496L210.136 28.048H203.728L202.816 30.496C202.784 30.592 202.712 30.704 202.6 30.832C202.488 30.944 202.296 31 202.024 31H199.072ZM204.712 24.592H209.176L206.92 18.256L204.712 24.592ZM217.811 31C217.635 31 217.491 30.944 217.379 30.832C217.267 30.72 217.211 30.576 217.211 30.4V14.8C217.211 14.624 217.267 14.48 217.379 14.368C217.491 14.256 217.635 14.2 217.811 14.2H224.339C226.403 14.2 228.027 14.68 229.211 15.64C230.411 16.584 231.011 17.928 231.011 19.672C231.011 20.808 230.731 21.768 230.171 22.552C229.627 23.336 228.907 23.928 228.011 24.328L231.323 30.232C231.371 30.328 231.395 30.416 231.395 30.496C231.395 30.624 231.339 30.744 231.227 30.856C231.131 30.952 231.011 31 230.867 31H227.699C227.395 31 227.171 30.928 227.027 30.784C226.883 30.624 226.779 30.48 226.715 30.352L223.979 25.072H221.507V30.4C221.507 30.576 221.451 30.72 221.339 30.832C221.227 30.944 221.083 31 220.907 31H217.811ZM221.507 21.688H224.291C225.043 21.688 225.603 21.504 225.971 21.136C226.355 20.768 226.547 20.264 226.547 19.624C226.547 19 226.363 18.496 225.995 18.112C225.643 17.728 225.075 17.536 224.291 17.536H221.507V21.688ZM238.842 31C238.666 31 238.514 30.944 238.386 30.832C238.274 30.72 238.218 30.576 238.218 30.4V28.696C238.218 28.584 238.25 28.416 238.314 28.192C238.378 27.952 238.546 27.728 238.818 27.52L241.314 25.072C242.594 24.096 243.642 23.272 244.458 22.6C245.29 21.912 245.906 21.304 246.306 20.776C246.706 20.248 246.906 19.752 246.906 19.288C246.906 18.744 246.762 18.296 246.474 17.944C246.202 17.576 245.722 17.392 245.034 17.392C244.57 17.392 244.178 17.496 243.858 17.704C243.554 17.896 243.322 18.152 243.162 18.472C243.002 18.792 242.89 19.12 242.826 19.456C242.762 19.664 242.65 19.808 242.49 19.888C242.346 19.968 242.186 20.008 242.01 20.008H239.01C238.866 20.008 238.746 19.96 238.65 19.864C238.554 19.768 238.506 19.648 238.506 19.504C238.522 18.736 238.682 18.016 238.986 17.344C239.306 16.672 239.746 16.08 240.306 15.568C240.882 15.04 241.562 14.632 242.346 14.344C243.146 14.056 244.042 13.912 245.034 13.912C246.394 13.912 247.546 14.128 248.49 14.56C249.45 14.992 250.178 15.6 250.674 16.384C251.17 17.152 251.418 18.056 251.418 19.096C251.418 19.88 251.242 20.616 250.89 21.304C250.554 21.976 250.066 22.624 249.426 23.248C248.802 23.856 248.058 24.488 247.194 25.144L244.986 27.376H251.154C251.33 27.376 251.474 27.432 251.586 27.544C251.714 27.656 251.778 27.8 251.778 27.976V30.4C251.778 30.576 251.714 30.72 251.586 30.832C251.474 30.944 251.33 31 251.154 31H238.842ZM262.086 31C261.926 31 261.782 30.944 261.654 30.832C261.542 30.72 261.486 30.576 261.486 30.4V27.688H254.022C253.862 27.688 253.718 27.632 253.59 27.52C253.478 27.408 253.422 27.264 253.422 27.088V24.808C253.422 24.664 253.446 24.536 253.494 24.424C253.558 24.296 253.622 24.176 253.686 24.064L260.67 14.608C260.878 14.336 261.174 14.2 261.558 14.2H265.038C265.214 14.2 265.358 14.256 265.47 14.368C265.598 14.48 265.662 14.624 265.662 14.8V24.112H267.774C267.966 24.112 268.118 24.176 268.23 24.304C268.342 24.416 268.398 24.552 268.398 24.712V27.088C268.398 27.264 268.334 27.408 268.206 27.52C268.094 27.632 267.958 27.688 267.798 27.688H265.662V30.4C265.662 30.576 265.598 30.72 265.47 30.832C265.358 30.944 265.214 31 265.038 31H262.086ZM257.55 24.28H261.582V18.616L257.55 24.28Z" fill="#7296EE"/>
</svg>
